<mxfile host="app.diagrams.net" modified="2024-04-11T00:36:43.285Z" agent="Mozilla/5.0 (Windows NT 10.0; Win64; x64) AppleWebKit/537.36 (KHTML, like Gecko) Chrome/123.0.0.0 Safari/537.36" version="24.2.3" etag="B4S1WKMJ2B6Hx159_VDw" type="github">
  <diagram name="第 1 页" id="_vYEV3_HqbD5oskshCf3">
    <mxGraphModel>
      <root>
        <mxCell id="0" />
        <mxCell id="1" parent="0" />
      </root>
    </mxGraphModel>
  </diagram>
</mxfile>
